<svg id="svg" version="1.1" xmlns="http://www.w3.org/2000/svg" xmlns:xlink="http://www.w3.org/1999/xlink" width="100" height="100" viewBox="0, 0, 400,400"><g id="svgg"><path id="path0" d="M8.544 12.565 C 4.787 14.314,0.802 19.210,0.800 22.076 C 0.800 22.448,0.620 22.864,0.400 23.000 C -0.155 23.343,-0.155 369.857,0.400 370.200 C 0.620 370.336,0.800 370.734,0.800 371.085 C 0.800 374.127,5.399 379.360,9.267 380.719 L 11.800 381.608 200.000 381.608 L 388.200 381.608 390.733 380.719 C 394.725 379.316,399.200 374.119,399.200 370.885 C 399.200 370.424,399.380 369.936,399.600 369.800 C 400.461 369.268,400.097 24.550,399.233 21.969 C 397.581 17.032,395.892 14.939,391.859 12.826 L 389.519 11.600 200.059 11.604 L 10.600 11.608 8.544 12.565 M371.600 68.000 L 371.600 96.800 200.000 96.800 L 28.400 96.800 28.400 68.000 L 28.400 39.200 200.000 39.200 L 371.600 39.200 371.600 68.000 M255.400 54.249 C 245.333 56.499,240.577 65.128,244.571 73.899 C 251.188 88.432,273.637 81.322,270.825 65.584 C 269.562 58.519,261.803 52.817,255.400 54.249 M295.647 54.779 C 280.779 60.295,284.232 81.701,300.000 81.763 C 312.376 81.812,318.495 67.168,309.825 58.247 C 306.193 54.510,300.274 53.062,295.647 54.779 M337.529 55.353 C 326.460 59.906,325.962 75.193,336.708 80.483 C 345.631 84.876,356.115 78.741,356.722 68.774 C 357.335 58.710,346.977 51.467,337.529 55.353 M371.501 239.176 C 371.581 330.253,371.500 353.416,371.101 353.670 C 370.523 354.037,29.987 354.124,29.033 353.757 C 28.372 353.504,28.008 125.726,28.667 125.066 C 28.814 124.919,105.989 124.844,200.167 124.900 L 371.400 125.000 371.501 239.176 M119.557 178.520 C 115.648 180.166,114.994 180.762,94.381 201.479 C 71.574 224.401,72.294 223.499,72.067 229.410 C 71.823 235.786,70.918 234.625,94.742 258.518 C 118.429 282.274,117.741 281.724,123.722 281.680 C 135.733 281.592,141.747 268.756,134.350 259.000 C 133.516 257.900,126.796 250.971,119.417 243.602 C 112.038 236.233,106.000 230.029,106.000 229.814 C 106.000 229.600,112.559 222.849,120.577 214.812 C 137.168 198.180,137.265 198.051,137.526 192.200 C 137.956 182.565,127.983 174.973,119.557 178.520 M215.370 178.349 C 208.759 180.605,209.997 178.598,187.836 222.978 C 165.433 267.840,167.200 263.978,167.200 268.092 C 167.200 280.553,182.982 286.623,191.191 277.321 C 192.832 275.461,230.650 200.738,232.195 196.303 C 235.797 185.963,225.441 174.912,215.370 178.349 M271.957 178.520 C 265.293 181.325,262.400 185.353,262.400 191.824 C 262.400 197.662,262.685 198.047,279.417 214.807 C 287.438 222.841,294.000 229.592,294.000 229.809 C 294.000 230.027,287.962 236.233,280.583 243.602 C 262.937 261.223,262.162 262.296,262.459 268.691 C 262.914 278.478,273.410 284.771,282.105 280.471 C 285.527 278.778,325.332 239.047,326.859 235.800 C 328.249 232.846,328.228 226.673,326.819 223.800 C 325.026 220.144,285.820 181.166,282.053 179.296 C 278.192 177.378,275.214 177.149,271.957 178.520 " stroke="none" fill="#fbfbfb" fill-rule="evenodd"></path><path id="path1" d="M0.032 10.700 C 0.049 16.585,0.153 21.130,0.262 20.800 C 1.523 16.989,4.434 13.718,8.112 11.978 L 10.600 10.801 200.036 10.800 L 389.472 10.800 392.020 12.073 C 395.774 13.949,398.486 17.015,399.738 20.800 C 399.847 21.130,399.951 16.585,399.968 10.700 L 400.000 0.000 200.000 0.000 L 0.000 0.000 0.032 10.700 M29.200 68.000 L 29.200 96.000 200.000 96.000 L 370.800 96.000 370.800 68.000 L 370.800 40.000 200.000 40.000 L 29.200 40.000 29.200 68.000 M259.680 53.650 C 275.432 56.995,275.818 78.314,260.200 82.379 C 252.002 84.513,243.257 78.005,242.521 69.224 C 241.726 59.744,250.572 51.716,259.680 53.650 M305.800 54.579 C 318.242 60.681,317.392 77.711,304.434 81.959 C 291.915 86.062,280.840 72.768,287.140 61.200 C 290.987 54.136,299.058 51.272,305.800 54.579 M349.232 54.918 C 358.187 59.105,360.292 71.183,353.301 78.273 C 341.605 90.135,322.225 76.210,329.842 61.416 C 333.392 54.520,342.123 51.594,349.232 54.918 M29.200 239.400 L 29.200 353.200 200.000 353.200 L 370.800 353.200 370.800 239.400 L 370.800 125.600 200.000 125.600 L 29.200 125.600 29.200 239.400 M129.962 178.552 C 137.634 182.289,140.632 190.727,136.944 198.200 C 136.202 199.703,132.335 203.828,121.378 214.802 C 113.360 222.833,106.800 229.580,106.800 229.795 C 106.800 230.010,113.362 236.759,121.381 244.793 C 138.375 261.816,138.170 261.533,138.189 268.000 C 138.221 279.056,126.327 286.231,116.800 280.904 C 113.949 279.310,73.933 239.124,72.684 236.600 C 70.359 231.904,70.429 227.232,72.891 222.800 C 74.890 219.203,114.198 180.167,117.400 178.600 C 121.637 176.526,125.771 176.510,129.962 178.552 M223.642 177.848 C 230.506 180.001,234.869 187.336,233.495 194.412 C 232.730 198.354,193.659 275.979,191.205 278.433 C 181.456 288.183,164.685 279.728,166.444 265.951 C 167.019 261.453,205.869 184.131,208.986 181.283 C 213.401 177.247,218.167 176.130,223.642 177.848 M282.400 178.535 C 285.756 180.123,324.966 218.944,327.109 222.800 C 329.579 227.244,329.581 232.357,327.114 236.800 C 325.560 239.598,285.980 279.349,283.200 280.904 C 273.673 286.231,261.779 279.056,261.811 268.000 C 261.830 261.545,261.630 261.822,278.622 244.789 C 286.640 236.752,293.200 230.002,293.200 229.790 C 293.200 229.578,286.640 222.833,278.622 214.802 C 267.665 203.828,263.798 199.703,263.056 198.200 C 256.943 185.815,269.917 172.626,282.400 178.535 M0.004 385.900 L 0.000 400.000 200.000 400.000 L 400.000 400.000 399.996 385.900 L 399.992 371.800 399.010 373.909 C 397.585 376.971,394.438 380.126,391.677 381.263 L 389.400 382.200 200.000 382.200 L 10.600 382.200 8.323 381.263 C 5.562 380.126,2.415 376.971,0.990 373.909 L 0.008 371.800 0.004 385.900 " stroke="none" fill="#2c2c34" fill-rule="evenodd"></path><path id="path2" d="M114.500 39.500 C 161.525 39.556,238.475 39.556,285.500 39.500 C 332.525 39.444,294.050 39.398,200.000 39.398 C 105.950 39.398,67.475 39.444,114.500 39.500 M328.501 68.200 C 328.505 69.080,328.587 69.393,328.683 68.895 C 328.779 68.398,328.775 67.678,328.675 67.295 C 328.575 66.913,328.496 67.320,328.501 68.200 M114.500 96.700 C 161.525 96.756,238.475 96.756,285.500 96.700 C 332.525 96.644,294.050 96.598,200.000 96.598 C 105.950 96.598,67.475 96.644,114.500 96.700 M106.596 188.500 L 99.800 195.400 106.700 188.604 C 113.110 182.291,113.781 181.600,113.496 181.600 C 113.438 181.600,110.333 184.705,106.596 188.500 M292.600 188.000 C 296.115 191.520,299.081 194.400,299.191 194.400 C 299.301 194.400,296.515 191.520,293.000 188.000 C 289.485 184.480,286.519 181.600,286.409 181.600 C 286.299 181.600,289.085 184.480,292.600 188.000 M233.293 192.000 C 233.293 192.770,233.375 193.085,233.476 192.700 C 233.576 192.315,233.576 191.685,233.476 191.300 C 233.375 190.915,233.293 191.230,233.293 192.000 M71.314 229.800 C 71.317 230.900,71.395 231.303,71.487 230.695 C 71.579 230.086,71.577 229.186,71.482 228.695 C 71.387 228.203,71.311 228.700,71.314 229.800 M328.509 229.600 C 328.509 230.590,328.587 230.995,328.682 230.500 C 328.778 230.005,328.778 229.195,328.682 228.700 C 328.587 228.205,328.509 228.610,328.509 229.600 M298.598 265.700 L 285.800 278.600 298.700 265.802 C 310.689 253.909,311.780 252.800,311.498 252.800 C 311.441 252.800,305.636 258.605,298.598 265.700 M101.400 266.000 C 108.217 272.820,113.885 278.400,113.995 278.400 C 114.105 278.400,108.617 272.820,101.800 266.000 C 94.983 259.180,89.315 253.600,89.205 253.600 C 89.095 253.600,94.583 259.180,101.400 266.000 M106.900 382.300 C 158.105 382.356,241.895 382.356,293.100 382.300 C 344.305 382.244,302.410 382.198,200.000 382.198 C 97.590 382.198,55.695 382.244,106.900 382.300 " stroke="none" fill="#93949b" fill-rule="evenodd"></path><path id="path3" d="M105.100 11.100 C 157.295 11.156,242.705 11.156,294.900 11.100 C 347.095 11.044,304.390 10.998,200.000 10.998 C 95.610 10.998,52.905 11.044,105.100 11.100 M5.852 13.249 C 3.911 14.535,2.653 15.961,1.308 18.400 C 0.403 20.043,-0.081 21.697,0.437 21.377 C 0.637 21.254,0.800 20.899,0.800 20.589 C 0.800 19.985,2.015 17.674,3.242 15.945 C 3.654 15.364,4.893 14.310,5.995 13.603 C 7.762 12.469,8.310 12.000,7.869 12.000 C 7.796 12.000,6.889 12.562,5.852 13.249 M392.000 12.136 C 392.000 12.235,392.902 12.895,394.005 13.603 C 395.107 14.310,396.346 15.364,396.758 15.945 C 397.985 17.674,399.200 19.985,399.200 20.589 C 399.200 20.899,399.378 21.263,399.595 21.397 C 400.875 22.188,397.997 16.796,396.181 15.001 C 394.713 13.549,392.000 11.690,392.000 12.136 M28.800 68.000 L 28.800 96.400 200.000 96.400 L 371.200 96.400 371.200 68.000 L 371.200 39.600 200.000 39.600 L 28.800 39.600 28.800 68.000 M370.800 68.000 L 370.800 96.000 200.000 96.000 L 29.200 96.000 29.200 68.000 L 29.200 40.000 200.000 40.000 L 370.800 40.000 370.800 68.000 M255.900 53.482 C 256.395 53.578,257.205 53.578,257.700 53.482 C 258.195 53.387,257.790 53.309,256.800 53.309 C 255.810 53.309,255.405 53.387,255.900 53.482 M295.200 54.099 C 290.700 55.774,286.764 60.039,285.877 64.200 C 285.633 65.346,285.641 65.355,286.058 64.400 C 289.967 55.453,296.007 52.082,304.400 54.163 C 304.950 54.300,304.770 54.152,304.000 53.836 C 301.966 53.000,297.818 53.124,295.200 54.099 M251.844 54.437 C 249.314 55.464,246.736 57.327,245.629 58.929 L 244.752 60.200 245.876 58.989 C 247.675 57.050,249.806 55.638,252.495 54.603 C 253.873 54.073,254.730 53.640,254.400 53.641 C 254.070 53.643,252.920 54.001,251.844 54.437 M259.600 54.000 C 260.150 54.176,260.960 54.320,261.400 54.320 C 262.033 54.320,261.992 54.254,261.200 54.000 C 260.650 53.824,259.840 53.680,259.400 53.680 C 258.767 53.680,258.808 53.746,259.600 54.000 M339.000 53.972 C 337.593 54.313,334.706 55.640,334.916 55.850 C 334.996 55.929,335.857 55.594,336.831 55.103 C 338.346 54.340,339.250 54.212,343.124 54.206 C 345.612 54.203,347.232 54.083,346.724 53.940 C 345.482 53.590,340.493 53.611,339.000 53.972 M262.400 54.594 C 262.400 54.687,263.026 55.059,263.790 55.422 C 266.188 56.560,268.714 59.119,270.009 61.724 C 270.686 63.086,271.119 63.750,270.970 63.200 C 270.273 60.628,268.148 57.879,265.438 56.044 C 263.814 54.944,262.400 54.269,262.400 54.594 M306.400 55.164 C 306.950 55.614,307.580 55.983,307.800 55.985 C 308.228 55.988,307.505 55.434,306.200 54.760 C 305.669 54.485,305.736 54.621,306.400 55.164 M348.000 54.566 C 348.000 54.684,348.767 55.129,349.704 55.556 C 360.992 60.699,359.019 77.496,346.600 81.972 L 345.400 82.405 346.600 82.190 C 358.794 80.006,361.299 60.465,350.043 55.325 C 349.250 54.962,348.465 54.595,348.300 54.509 C 348.135 54.423,348.000 54.449,348.000 54.566 M310.070 57.800 C 311.874 59.730,313.728 63.127,314.108 65.200 C 314.287 66.176,314.292 66.178,314.346 65.265 C 314.443 63.599,312.195 59.500,310.143 57.600 L 308.200 55.800 310.070 57.800 M332.261 57.977 C 331.237 59.071,330.400 60.063,330.400 60.182 C 330.400 60.300,331.298 59.466,332.395 58.327 C 333.493 57.189,334.330 56.197,334.256 56.122 C 334.182 56.048,333.284 56.883,332.261 57.977 M243.852 61.746 C 242.927 63.695,243.070 64.124,244.014 62.232 C 244.445 61.369,244.731 60.598,244.651 60.517 C 244.570 60.437,244.211 60.990,243.852 61.746 M329.452 62.146 C 328.527 64.095,328.670 64.524,329.614 62.632 C 330.045 61.769,330.331 60.998,330.251 60.917 C 330.170 60.837,329.811 61.390,329.452 62.146 M242.574 65.836 C 241.487 73.083,246.625 80.806,253.456 82.195 C 254.085 82.323,253.610 82.039,252.400 81.564 C 246.100 79.090,243.054 74.653,243.020 67.900 C 242.997 63.470,242.957 63.282,242.574 65.836 M271.348 68.000 C 271.353 71.062,271.415 71.459,271.666 70.044 C 271.837 69.078,271.834 67.368,271.660 66.244 C 271.383 64.462,271.343 64.688,271.348 68.000 M328.215 66.615 C 328.061 67.854,328.017 68.950,328.119 69.052 C 328.220 69.154,328.430 68.223,328.585 66.985 C 328.739 65.746,328.783 64.650,328.681 64.548 C 328.580 64.446,328.370 65.377,328.215 66.615 M285.328 68.000 C 285.328 69.430,285.401 70.015,285.489 69.300 C 285.578 68.585,285.578 67.415,285.489 66.700 C 285.401 65.985,285.328 66.570,285.328 68.000 M314.514 68.200 C 314.517 69.300,314.595 69.703,314.687 69.095 C 314.779 68.486,314.777 67.586,314.682 67.095 C 314.587 66.603,314.511 67.100,314.514 68.200 M328.444 70.600 C 328.380 72.382,330.499 76.509,332.453 78.405 C 333.985 79.892,337.200 81.931,337.200 81.416 C 337.200 81.306,336.517 80.868,335.682 80.442 C 332.663 78.902,329.517 74.604,328.817 71.063 C 328.535 69.638,328.481 69.572,328.444 70.600 M313.782 71.700 C 312.847 76.026,309.193 80.016,304.884 81.415 C 303.721 81.793,302.842 82.175,302.931 82.264 C 303.719 83.052,309.846 79.498,311.447 77.325 C 313.092 75.093,315.001 70.400,314.264 70.400 C 314.154 70.400,313.937 70.985,313.782 71.700 M285.867 71.800 C 286.334 74.076,289.718 79.616,290.291 79.042 C 290.398 78.935,289.943 78.268,289.281 77.559 C 288.618 76.850,287.718 75.444,287.280 74.435 C 286.843 73.426,286.291 72.150,286.053 71.600 C 285.641 70.645,285.632 70.654,285.867 71.800 M270.222 73.798 C 269.841 74.797,268.610 76.646,267.487 77.907 L 265.445 80.200 267.341 78.400 C 269.083 76.747,271.572 72.638,271.111 72.178 C 271.004 72.070,270.603 72.799,270.222 73.798 M291.751 80.123 C 292.818 81.039,296.728 82.605,297.077 82.256 C 297.162 82.172,296.283 81.792,295.124 81.413 C 293.965 81.034,292.473 80.366,291.808 79.929 L 290.600 79.134 291.751 80.123 M263.400 80.739 C 262.740 81.099,261.570 81.613,260.800 81.881 L 259.400 82.369 260.773 82.136 C 261.908 81.945,264.516 80.770,265.167 80.157 C 265.557 79.790,264.508 80.135,263.400 80.739 M338.200 82.000 C 338.640 82.189,339.270 82.344,339.600 82.344 C 339.978 82.344,339.904 82.217,339.400 82.000 C 338.960 81.811,338.330 81.656,338.000 81.656 C 337.622 81.656,337.696 81.783,338.200 82.000 M255.907 82.690 C 256.626 82.779,257.706 82.777,258.307 82.686 C 258.908 82.595,258.320 82.522,257.000 82.524 C 255.680 82.526,255.188 82.601,255.907 82.690 M298.700 82.689 C 299.415 82.778,300.585 82.778,301.300 82.689 C 302.015 82.601,301.430 82.528,300.000 82.528 C 298.570 82.528,297.985 82.601,298.700 82.689 M341.500 82.689 C 342.215 82.778,343.385 82.778,344.100 82.689 C 344.815 82.601,344.230 82.528,342.800 82.528 C 341.370 82.528,340.785 82.601,341.500 82.689 M29.067 125.466 C 28.920 125.613,28.800 177.003,28.800 239.667 L 28.800 353.600 200.001 353.600 L 371.201 353.600 371.101 239.500 L 371.000 125.400 200.167 125.300 C 106.209 125.244,29.214 125.319,29.067 125.466 M370.800 239.400 L 370.800 353.200 200.000 353.200 L 29.200 353.200 29.200 239.400 L 29.200 125.600 200.000 125.600 L 370.800 125.600 370.800 239.400 M121.600 177.182 C 117.078 177.793,116.445 178.331,94.557 200.187 C 73.330 221.382,71.959 222.949,71.437 226.600 C 71.219 228.129,71.233 228.115,71.767 226.285 C 72.747 222.923,74.222 221.273,94.800 200.531 C 118.046 177.099,117.516 177.520,123.783 177.520 C 126.303 177.520,127.478 177.716,128.806 178.357 C 129.759 178.818,130.605 179.129,130.685 179.049 C 131.573 178.161,124.742 176.757,121.600 177.182 M217.000 177.213 C 215.897 177.377,216.501 177.467,218.942 177.501 C 220.889 177.528,222.419 177.495,222.342 177.428 C 222.004 177.138,218.463 176.995,217.000 177.213 M274.000 177.188 C 272.302 177.424,269.002 178.736,269.316 179.050 C 269.396 179.129,270.241 178.818,271.194 178.357 C 272.522 177.716,273.697 177.520,276.217 177.520 C 282.477 177.520,281.953 177.104,305.200 200.534 C 325.779 221.275,327.254 222.923,328.233 226.285 C 328.767 228.115,328.781 228.129,328.563 226.600 C 328.041 222.950,326.669 221.381,305.443 200.183 C 281.476 176.246,281.365 176.165,274.000 177.188 M225.028 178.768 C 226.364 179.433,228.044 180.537,228.761 181.223 C 229.478 181.908,230.146 182.387,230.246 182.288 C 230.801 181.733,225.923 178.462,223.600 177.831 C 223.050 177.682,223.693 178.103,225.028 178.768 M212.141 178.797 C 211.668 178.988,211.170 179.324,211.034 179.545 C 210.898 179.765,211.330 179.675,211.993 179.343 C 212.657 179.012,213.200 178.665,213.200 178.571 C 213.200 178.366,213.220 178.362,212.141 178.797 M208.264 181.973 C 205.374 185.062,166.829 262.412,166.591 265.600 L 166.426 267.800 166.801 265.600 C 167.400 262.078,206.160 184.650,208.664 181.973 C 209.679 180.888,210.419 180.000,210.309 180.000 C 210.199 180.000,209.279 180.888,208.264 181.973 M133.611 180.917 C 133.605 181.092,134.062 181.722,134.627 182.317 C 136.055 183.823,137.243 186.207,137.857 188.800 L 138.378 191.000 138.151 189.012 C 137.861 186.463,133.676 179.002,133.611 180.917 M264.922 182.308 C 263.127 184.541,262.104 186.772,261.849 189.009 L 261.622 191.000 262.143 188.800 C 262.762 186.185,263.946 183.822,265.413 182.274 C 266.001 181.654,266.403 181.069,266.307 180.974 C 266.212 180.878,265.588 181.479,264.922 182.308 M232.227 185.800 C 232.379 186.240,232.746 187.590,233.041 188.800 L 233.578 191.000 233.350 189.000 C 233.224 187.900,232.857 186.550,232.535 186.000 C 232.169 185.376,232.053 185.301,232.227 185.800 M137.834 194.475 C 137.220 198.320,136.168 199.588,120.978 214.802 C 112.960 222.833,106.400 229.578,106.400 229.790 C 106.400 230.002,112.960 236.752,120.978 244.789 C 136.921 260.770,137.235 261.171,138.015 266.588 L 138.363 269.000 138.225 266.600 C 137.931 261.498,137.501 260.941,121.381 244.793 C 113.362 236.759,106.800 230.010,106.800 229.795 C 106.800 229.580,113.360 222.833,121.378 214.802 C 136.568 199.588,137.620 198.320,138.234 194.475 C 138.382 193.554,138.412 192.800,138.302 192.800 C 138.192 192.800,137.982 193.554,137.834 194.475 M261.809 194.322 C 262.005 195.953,263.531 199.802,263.853 199.480 C 263.936 199.398,263.697 198.716,263.322 197.965 C 262.948 197.214,262.407 195.700,262.121 194.600 L 261.601 192.600 261.809 194.322 M233.232 193.686 C 233.214 194.063,232.917 195.205,232.571 196.224 C 232.225 197.242,232.020 198.153,232.114 198.247 C 232.402 198.536,233.684 194.046,233.467 193.506 C 233.340 193.191,233.251 193.259,233.232 193.686 M278.500 214.602 C 286.585 222.743,293.200 229.578,293.200 229.790 C 293.200 230.002,286.640 236.752,278.622 244.789 C 262.507 260.942,262.068 261.511,261.775 266.600 L 261.637 269.000 261.985 266.588 C 262.765 261.171,263.079 260.770,279.022 244.789 C 287.040 236.752,293.600 230.000,293.600 229.786 C 293.600 229.571,286.895 222.737,278.700 214.598 L 263.800 199.800 278.500 214.602 M70.901 229.800 C 70.905 230.680,70.987 230.993,71.083 230.495 C 71.179 229.998,71.175 229.278,71.075 228.895 C 70.975 228.513,70.896 228.920,70.901 229.800 M328.263 232.783 C 327.603 236.718,326.422 238.075,305.047 259.421 C 284.648 279.794,283.808 280.544,279.800 281.965 L 278.600 282.391 280.000 282.156 C 282.987 281.656,285.184 279.706,304.925 260.045 C 326.898 238.161,329.441 235.126,328.704 231.670 C 328.626 231.301,328.427 231.802,328.263 232.783 M71.437 232.978 C 71.990 236.797,72.799 237.725,94.337 259.249 C 114.849 279.746,116.976 281.645,120.000 282.160 C 121.043 282.337,120.869 282.210,119.317 281.661 C 116.004 280.488,114.099 278.748,93.566 258.122 C 73.876 238.342,72.979 237.317,71.747 233.200 L 71.209 231.400 71.437 232.978 M137.822 270.622 C 137.672 271.425,137.628 272.162,137.726 272.260 C 137.824 272.357,138.027 271.781,138.178 270.978 C 138.328 270.175,138.372 269.438,138.274 269.340 C 138.176 269.243,137.973 269.819,137.822 270.622 M166.657 270.697 C 167.314 275.939,172.900 281.639,177.975 282.245 C 179.253 282.398,179.214 282.360,177.600 281.885 C 171.937 280.217,168.501 276.649,166.928 270.800 L 166.444 269.000 166.657 270.697 M261.668 270.000 C 261.688 271.039,262.318 272.746,262.332 271.800 C 262.338 271.360,262.189 270.640,262.000 270.200 C 261.789 269.710,261.661 269.632,261.668 270.000 M136.582 274.316 C 134.643 277.994,131.096 280.781,127.000 281.844 L 125.000 282.363 126.800 282.133 C 130.650 281.642,139.033 274.500,137.528 272.995 C 137.438 272.905,137.013 273.499,136.582 274.316 M262.404 272.953 C 262.373 275.797,269.229 281.626,273.200 282.133 L 275.000 282.363 273.000 281.844 C 268.885 280.776,265.756 278.335,263.459 274.400 C 262.881 273.410,262.406 272.759,262.404 272.953 M192.801 275.999 C 190.841 279.053,187.503 281.351,184.044 282.026 C 182.767 282.275,182.730 282.313,183.726 282.354 C 186.499 282.467,191.790 278.727,193.723 275.286 C 194.840 273.298,194.233 273.767,192.801 275.999 M122.300 282.682 C 122.795 282.778,123.605 282.778,124.100 282.682 C 124.595 282.587,124.190 282.509,123.200 282.509 C 122.210 282.509,121.805 282.587,122.300 282.682 M180.305 282.683 C 180.802 282.779,181.522 282.775,181.905 282.675 C 182.287 282.575,181.880 282.496,181.000 282.501 C 180.120 282.505,179.807 282.587,180.305 282.683 M275.900 282.682 C 276.395 282.778,277.205 282.778,277.700 282.682 C 278.195 282.587,277.790 282.509,276.800 282.509 C 275.810 282.509,275.405 282.587,275.900 282.682 M0.202 372.050 C 0.668 373.587,2.454 376.725,3.296 377.487 C 3.725 377.875,3.417 377.213,2.612 376.018 C 1.807 374.822,1.047 373.335,0.923 372.713 C 0.798 372.092,0.521 371.475,0.305 371.342 C 0.064 371.192,0.025 371.464,0.202 372.050 M399.495 371.473 C 399.394 371.653,399.201 372.250,399.068 372.800 C 398.934 373.350,398.170 374.790,397.370 376.000 C 396.476 377.351,396.244 377.903,396.767 377.429 C 397.727 376.561,400.236 371.703,399.899 371.366 C 399.779 371.245,399.597 371.294,399.495 371.473 M5.003 379.158 C 6.092 380.467,9.499 381.921,12.072 382.176 L 14.200 382.386 11.800 381.861 C 8.837 381.213,6.525 380.237,5.208 379.081 L 4.206 378.200 5.003 379.158 M394.817 378.980 C 394.048 379.906,390.803 381.328,388.200 381.878 L 385.800 382.386 387.928 382.176 C 390.817 381.890,397.825 378.400,395.511 378.400 C 395.394 378.400,395.081 378.661,394.817 378.980 " stroke="none" fill="#676768" fill-rule="evenodd"></path><path id="path4" d="M105.300 11.500 C 157.385 11.556,242.615 11.556,294.700 11.500 C 346.785 11.444,304.170 11.398,200.000 11.398 C 95.830 11.398,53.215 11.444,105.300 11.500 M4.632 14.840 C 3.405 15.962,2.400 17.056,2.400 17.271 C 2.400 17.486,2.889 17.081,3.486 16.371 C 4.083 15.662,5.280 14.568,6.146 13.940 C 7.012 13.313,7.528 12.800,7.292 12.800 C 7.057 12.800,5.860 13.718,4.632 14.840 M396.025 15.831 C 396.781 16.728,397.481 17.397,397.580 17.317 C 397.679 17.238,397.060 16.504,396.205 15.687 L 394.650 14.200 396.025 15.831 M1.386 19.227 C 1.037 19.902,0.807 20.614,0.876 20.809 C 0.944 21.004,1.302 20.451,1.670 19.582 C 2.465 17.706,2.287 17.484,1.386 19.227 M398.330 19.582 C 398.698 20.451,399.056 21.004,399.124 20.809 C 399.250 20.449,398.113 18.000,397.819 18.000 C 397.731 18.000,397.961 18.712,398.330 19.582 M0.292 21.842 C 0.131 22.002,-0.000 22.409,-0.000 22.747 C -0.000 23.197,0.118 23.242,0.445 22.915 C 0.690 22.670,0.821 22.263,0.737 22.010 C 0.652 21.757,0.452 21.681,0.292 21.842 M399.212 22.000 C 399.212 22.330,399.387 22.870,399.600 23.200 C 399.945 23.733,399.988 23.733,399.988 23.200 C 399.988 22.870,399.813 22.330,399.600 22.000 C 399.255 21.467,399.212 21.467,399.212 22.000 M28.400 68.000 C 28.400 83.840,28.535 96.800,28.700 96.800 C 28.865 96.800,29.000 83.840,29.000 68.000 C 29.000 52.160,28.865 39.200,28.700 39.200 C 28.535 39.200,28.400 52.160,28.400 68.000 M371.000 68.000 C 371.000 83.840,371.135 96.800,371.300 96.800 C 371.465 96.800,371.600 83.840,371.600 68.000 C 371.600 52.160,371.465 39.200,371.300 39.200 C 371.135 39.200,371.000 52.160,371.000 68.000 M255.209 53.956 C 254.612 54.122,255.407 54.235,257.209 54.240 C 259.188 54.245,259.794 54.154,259.000 53.971 C 257.459 53.616,256.443 53.612,255.209 53.956 M297.340 53.906 C 297.087 54.068,298.386 54.200,300.226 54.200 C 302.067 54.200,303.264 54.078,302.886 53.928 C 301.953 53.558,297.910 53.542,297.340 53.906 M341.700 54.287 C 342.305 54.378,343.295 54.378,343.900 54.287 C 344.505 54.195,344.010 54.120,342.800 54.120 C 341.590 54.120,341.095 54.195,341.700 54.287 M249.211 56.220 C 247.384 57.509,248.013 57.492,249.914 56.200 C 250.723 55.650,251.209 55.209,250.993 55.220 C 250.777 55.230,249.975 55.680,249.211 56.220 M264.246 56.072 C 266.019 57.411,266.362 57.517,265.016 56.311 C 264.347 55.712,263.641 55.217,263.446 55.211 C 263.251 55.205,263.611 55.592,264.246 56.072 M335.344 55.969 C 334.653 56.390,333.947 56.975,333.775 57.268 C 333.590 57.582,333.777 57.534,334.231 57.150 C 334.654 56.793,335.540 56.215,336.200 55.866 C 336.860 55.517,337.220 55.225,337.000 55.218 C 336.780 55.210,336.035 55.548,335.344 55.969 M348.433 55.349 C 348.845 55.717,351.200 56.800,351.200 56.621 C 351.200 56.390,348.982 55.200,348.553 55.200 C 348.396 55.200,348.342 55.267,348.433 55.349 M290.544 57.370 C 289.133 58.578,286.367 62.926,286.419 63.856 C 286.430 64.045,286.978 63.154,287.638 61.875 C 288.298 60.596,289.672 58.751,290.691 57.775 C 292.889 55.669,292.804 55.435,290.544 57.370 M307.600 56.125 C 307.600 56.224,308.261 56.809,309.068 57.425 C 309.876 58.041,310.411 58.341,310.256 58.091 C 309.940 57.579,307.600 55.847,307.600 56.125 M244.581 61.237 C 244.229 61.918,244.012 62.545,244.099 62.632 C 244.186 62.719,244.556 62.162,244.922 61.395 C 245.744 59.670,245.459 59.538,244.581 61.237 M330.181 61.637 C 329.829 62.318,329.612 62.945,329.699 63.032 C 329.786 63.119,330.156 62.562,330.522 61.795 C 331.344 60.070,331.059 59.938,330.181 61.637 M312.034 61.000 C 312.034 61.220,312.378 62.030,312.800 62.800 C 313.222 63.570,313.566 64.020,313.566 63.800 C 313.566 63.580,313.222 62.770,312.800 62.000 C 312.378 61.230,312.034 60.780,312.034 61.000 M270.658 64.800 C 270.975 66.525,271.202 66.851,271.194 65.567 C 271.191 65.035,271.011 64.330,270.794 64.000 C 270.518 63.578,270.477 63.815,270.658 64.800 M329.049 64.215 C 328.912 64.573,328.815 65.166,328.834 65.533 C 328.853 65.900,329.027 65.669,329.221 65.020 C 329.598 63.758,329.465 63.133,329.049 64.215 M285.852 65.700 C 285.538 66.872,285.582 69.612,285.928 70.485 C 286.078 70.862,286.200 69.737,286.200 67.985 C 286.200 64.457,286.195 64.422,285.852 65.700 M313.767 68.173 C 313.780 70.793,313.842 71.095,314.122 69.910 C 314.313 69.106,314.305 67.711,314.106 66.737 C 313.785 65.168,313.752 65.307,313.767 68.173 M270.846 70.467 C 270.821 70.834,270.696 71.464,270.570 71.867 C 270.352 72.562,270.363 72.563,270.797 71.887 C 271.048 71.496,271.173 70.866,271.073 70.487 C 270.911 69.868,270.888 69.866,270.846 70.467 M328.806 70.633 C 328.809 71.055,328.995 71.670,329.218 72.000 C 329.515 72.438,329.552 72.276,329.356 71.400 C 329.027 69.929,328.798 69.610,328.806 70.633 M244.000 73.353 C 244.000 73.782,245.190 76.000,245.421 76.000 C 245.531 76.000,245.323 75.415,244.959 74.700 C 244.217 73.240,244.000 72.936,244.000 73.353 M355.078 74.605 C 354.712 75.372,354.495 76.000,354.596 76.000 C 354.870 76.000,356.084 73.551,355.901 73.368 C 355.814 73.281,355.444 73.838,355.078 74.605 M310.208 77.500 C 309.349 78.545,309.060 79.040,309.566 78.600 C 310.461 77.822,312.198 75.600,311.912 75.600 C 311.834 75.600,311.067 76.455,310.208 77.500 M246.800 77.800 C 247.546 78.570,248.247 79.200,248.357 79.200 C 248.467 79.200,247.946 78.570,247.200 77.800 C 246.454 77.030,245.753 76.400,245.643 76.400 C 245.533 76.400,246.054 77.030,246.800 77.800 M352.778 77.900 L 351.400 79.400 352.900 78.022 C 354.296 76.738,354.584 76.400,354.278 76.400 C 354.212 76.400,353.537 77.075,352.778 77.900 M288.800 76.925 C 288.800 76.994,289.385 77.579,290.100 78.225 L 291.400 79.400 290.225 78.100 C 289.130 76.888,288.800 76.616,288.800 76.925 M263.238 80.258 C 261.829 80.996,260.890 81.600,261.151 81.600 C 261.617 81.600,264.815 80.032,266.000 79.222 C 267.205 78.399,265.735 78.950,263.238 80.258 M249.544 79.976 C 250.064 80.429,250.679 80.800,250.911 80.800 C 251.403 80.800,251.379 80.780,249.800 79.855 L 248.600 79.153 249.544 79.976 M348.600 80.626 C 347.500 81.156,346.870 81.584,347.200 81.577 C 347.530 81.570,348.610 81.130,349.600 80.600 C 351.926 79.355,351.201 79.374,348.600 80.626 M254.476 82.060 C 254.984 82.203,256.120 82.320,257.000 82.320 C 257.880 82.320,259.016 82.203,259.524 82.060 C 260.032 81.917,258.896 81.800,257.000 81.800 C 255.104 81.800,253.968 81.917,254.476 82.060 M297.515 82.072 C 297.892 82.221,299.010 82.344,300.000 82.344 C 300.990 82.344,302.108 82.221,302.485 82.072 C 302.862 81.922,301.744 81.800,300.000 81.800 C 298.256 81.800,297.138 81.922,297.515 82.072 M340.317 82.072 C 341.180 82.415,344.299 82.405,345.551 82.054 C 346.074 81.907,344.957 81.790,343.068 81.794 C 341.179 81.797,339.942 81.922,340.317 82.072 M28.585 125.300 C 28.481 125.575,28.442 177.100,28.498 239.800 L 28.601 353.800 28.701 239.500 L 28.800 125.200 199.999 125.200 L 371.199 125.200 371.300 239.400 L 371.402 353.600 371.401 239.300 L 371.400 125.000 200.088 124.900 C 63.247 124.819,28.737 124.900,28.585 125.300 M215.400 178.000 C 214.896 178.217,214.822 178.344,215.200 178.344 C 215.530 178.344,216.160 178.189,216.600 178.000 C 217.104 177.783,217.178 177.656,216.800 177.656 C 216.470 177.656,215.840 177.811,215.400 178.000 M220.033 177.747 C 220.125 177.828,220.920 178.004,221.800 178.138 C 222.915 178.307,223.158 178.271,222.600 178.019 C 221.832 177.671,219.690 177.444,220.033 177.747 M117.500 179.029 C 115.949 179.870,116.125 180.161,117.700 179.359 C 119.208 178.593,119.475 178.394,118.967 178.416 C 118.765 178.425,118.105 178.701,117.500 179.029 M128.433 178.549 C 128.845 178.917,131.200 180.000,131.200 179.821 C 131.200 179.590,128.982 178.400,128.553 178.400 C 128.396 178.400,128.342 178.467,128.433 178.549 M269.900 179.029 C 268.349 179.870,268.525 180.161,270.100 179.359 C 271.608 178.593,271.875 178.394,271.367 178.416 C 271.165 178.425,270.505 178.701,269.900 179.029 M280.833 178.549 C 281.245 178.917,283.600 180.000,283.600 179.821 C 283.600 179.590,281.382 178.400,280.953 178.400 C 280.796 178.400,280.742 178.467,280.833 178.549 M226.411 179.860 C 226.955 180.223,228.040 181.078,228.823 181.760 C 229.605 182.442,229.368 182.145,228.295 181.100 C 227.222 180.055,226.137 179.200,225.883 179.200 C 225.629 179.200,225.867 179.497,226.411 179.860 M94.798 200.700 L 75.000 220.600 94.900 200.802 C 105.845 189.912,114.800 180.957,114.800 180.902 C 114.800 180.620,113.201 182.203,94.798 200.700 M132.800 180.925 C 132.800 180.994,133.385 181.579,134.100 182.225 L 135.400 183.400 134.225 182.100 C 133.130 180.888,132.800 180.616,132.800 180.925 M265.775 182.100 L 264.600 183.400 265.900 182.225 C 266.615 181.579,267.200 180.994,267.200 180.925 C 267.200 180.616,266.870 180.888,265.775 182.100 M304.800 200.600 C 315.688 211.490,324.687 220.400,324.797 220.400 C 324.907 220.400,316.088 211.490,305.200 200.600 C 294.312 189.710,285.313 180.800,285.203 180.800 C 285.093 180.800,293.912 189.710,304.800 200.600 M232.928 191.600 C 232.928 193.030,233.001 193.615,233.089 192.900 C 233.178 192.185,233.178 191.015,233.089 190.300 C 233.001 189.585,232.928 190.170,232.928 191.600 M137.724 191.800 C 137.726 193.120,137.801 193.612,137.890 192.893 C 137.979 192.174,137.977 191.094,137.886 190.493 C 137.795 189.892,137.722 190.480,137.724 191.800 M262.124 191.800 C 262.126 193.120,262.201 193.612,262.290 192.893 C 262.379 192.174,262.377 191.094,262.286 190.493 C 262.195 189.892,262.122 190.480,262.124 191.800 M135.081 199.839 C 134.686 200.368,134.508 200.800,134.685 200.800 C 135.034 200.800,136.138 199.201,135.928 199.000 C 135.857 198.933,135.477 199.311,135.081 199.839 M120.048 215.352 C 112.267 223.135,105.968 229.697,106.051 229.933 C 106.133 230.170,112.705 236.897,120.656 244.882 C 128.607 252.867,134.784 258.950,134.382 258.400 C 133.981 257.850,127.520 251.281,120.026 243.802 C 112.532 236.323,106.400 230.024,106.400 229.804 C 106.400 229.584,112.744 223.058,120.498 215.302 C 128.252 207.546,134.506 201.200,134.396 201.200 C 134.286 201.200,127.829 207.568,120.048 215.352 M279.500 215.202 C 287.255 223.013,293.600 229.584,293.600 229.804 C 293.600 230.024,287.468 236.323,279.974 243.802 C 272.480 251.281,266.019 257.850,265.618 258.400 C 265.216 258.950,271.393 252.868,279.344 244.884 C 287.295 236.901,293.848 230.151,293.907 229.884 C 293.966 229.618,287.576 223.010,279.707 215.200 L 265.400 201.000 279.500 215.202 M71.731 229.800 C 71.733 231.340,71.805 231.921,71.892 231.091 C 71.979 230.261,71.977 229.001,71.889 228.291 C 71.800 227.581,71.729 228.260,71.731 229.800 M328.131 229.800 C 328.133 231.340,328.205 231.921,328.292 231.091 C 328.379 230.261,328.377 229.001,328.289 228.291 C 328.200 227.581,328.129 228.260,328.131 229.800 M74.378 238.330 C 75.338 239.718,80.314 244.732,102.239 266.400 C 110.281 274.347,107.311 271.241,94.597 258.408 C 83.159 246.863,73.723 237.323,73.630 237.208 C 73.536 237.094,73.873 237.598,74.378 238.330 M305.405 258.359 C 290.349 273.593,288.350 275.702,298.163 266.000 C 323.002 241.441,327.750 236.596,326.327 237.259 C 326.257 237.292,316.842 246.787,305.405 258.359 M166.920 268.000 C 166.920 269.210,166.995 269.705,167.087 269.100 C 167.178 268.495,167.178 267.505,167.087 266.900 C 166.995 266.295,166.920 266.790,166.920 268.000 M137.714 268.200 C 137.717 269.300,137.795 269.703,137.887 269.095 C 137.979 268.486,137.977 267.586,137.882 267.095 C 137.787 266.603,137.711 267.100,137.714 268.200 M262.120 268.400 C 262.120 269.610,262.195 270.105,262.287 269.500 C 262.378 268.895,262.378 267.905,262.287 267.300 C 262.195 266.695,262.120 267.190,262.120 268.400 M137.029 271.829 C 136.881 272.415,136.838 272.972,136.932 273.066 C 137.027 273.160,137.224 272.758,137.371 272.171 C 137.519 271.585,137.562 271.028,137.468 270.934 C 137.373 270.840,137.176 271.242,137.029 271.829 M135.800 274.800 C 135.459 275.460,135.269 276.000,135.379 276.000 C 135.489 276.000,135.859 275.460,136.200 274.800 C 136.541 274.140,136.731 273.600,136.621 273.600 C 136.511 273.600,136.141 274.140,135.800 274.800 M263.800 274.800 C 264.141 275.460,264.511 276.000,264.621 276.000 C 264.731 276.000,264.541 275.460,264.200 274.800 C 263.859 274.140,263.489 273.600,263.379 273.600 C 263.269 273.600,263.459 274.140,263.800 274.800 M170.800 277.800 C 171.546 278.570,172.247 279.200,172.357 279.200 C 172.467 279.200,171.946 278.570,171.200 277.800 C 170.454 277.030,169.753 276.400,169.643 276.400 C 169.533 276.400,170.054 277.030,170.800 277.800 M190.426 278.173 C 189.694 278.928,188.573 279.763,187.935 280.027 C 187.296 280.291,186.853 280.587,186.950 280.683 C 187.285 281.018,189.407 279.661,190.778 278.234 C 191.537 277.445,192.067 276.800,191.957 276.800 C 191.847 276.800,191.158 277.418,190.426 278.173 M116.800 280.219 C 116.800 280.513,119.249 281.650,119.609 281.524 C 119.804 281.456,119.251 281.098,118.382 280.730 C 117.512 280.361,116.800 280.131,116.800 280.219 M281.400 280.822 C 280.520 281.238,280.034 281.584,280.320 281.590 C 280.902 281.601,283.200 280.484,283.200 280.190 C 283.200 279.956,283.318 279.914,281.400 280.822 M123.600 282.006 C 123.178 282.282,123.415 282.323,124.400 282.142 C 126.125 281.825,126.451 281.598,125.167 281.606 C 124.635 281.609,123.930 281.789,123.600 282.006 M178.500 281.876 C 178.885 281.976,179.515 281.976,179.900 281.876 C 180.285 281.775,179.970 281.693,179.200 281.693 C 178.430 281.693,178.115 281.775,178.500 281.876 M181.221 281.979 C 180.846 282.216,181.270 282.265,182.421 282.118 C 183.399 281.992,184.275 281.825,184.367 281.745 C 184.742 281.419,181.755 281.640,181.221 281.979 M274.033 281.743 C 274.125 281.821,274.830 282.001,275.600 282.142 C 276.585 282.323,276.822 282.282,276.400 282.006 C 275.858 281.650,273.637 281.403,274.033 281.743 M114.500 353.900 C 161.525 353.956,238.475 353.956,285.500 353.900 C 332.525 353.844,294.050 353.798,200.000 353.798 C 105.950 353.798,67.475 353.844,114.500 353.900 M399.492 369.842 C 399.331 370.002,399.200 370.409,399.200 370.747 C 399.200 371.197,399.318 371.242,399.645 370.915 C 399.890 370.670,400.021 370.263,399.937 370.010 C 399.852 369.757,399.652 369.681,399.492 369.842 M3.149 376.642 C 3.601 377.324,4.653 378.372,5.486 378.970 L 7.000 380.058 5.754 378.929 C 5.068 378.308,4.016 377.260,3.417 376.600 L 2.327 375.400 3.149 376.642 M395.200 377.891 C 393.746 379.384,393.448 379.822,394.323 379.183 C 395.408 378.390,397.945 375.559,397.520 375.616 C 397.454 375.625,396.410 376.649,395.200 377.891 M106.300 381.900 C 157.835 381.956,242.165 381.956,293.700 381.900 C 345.235 381.844,303.070 381.798,200.000 381.798 C 96.930 381.798,54.765 381.844,106.300 381.900 " stroke="none" fill="#9c9ca3" fill-rule="evenodd"></path></g></svg>